<?xml version="1.0"?>
<svg xmlns="http://www.w3.org/2000/svg" xmlns:xlink="http://www.w3.org/1999/xlink" xmlns:svgjs="http://svgjs.com/svgjs" version="1.1" width="512" height="512" x="0" y="0" viewBox="0 0 409.6 409" style="enable-background:new 0 0 512 512" xml:space="preserve" class=""><g><path xmlns="http://www.w3.org/2000/svg" d="m0 155.3125c0 6.816406 3.398438 12.933594 8.601562 16.652344v-.199219l101.601563 74.175781-38.800781 119.917969c-2.800782 8.320313 0 17.648437 7.398437 23.070313 7.398438 5.402343 17.199219 5 24.203125-.105469l101.796875-73.996094 101.800781 73.996094c7 5.101562 16.699219 5.5 24.097657.203125 7.503906-5.519532 10.199219-14.847656 7.398437-23.167969.105469 0-38.796875-119.917969-38.796875-119.917969l101.699219-74.082031v.105469c5.199219-3.71875 8.601562-9.835938 8.601562-16.652344 0-11.425781-9.300781-20.75-20.597656-20.75h-125.800781l-38.902344-119.929688c-2.601562-8.203124-10.398437-14.332031-19.5-14.332031-9.097656 0-16.898437 6.132813-19.496093 14.332031l-38.902344 119.929688h-125.800782c-11.402343 0-20.601562 9.316406-20.601562 20.75zm204.800781-90.164062 33.601563 103.554687h109l-88.203125 64.222656s22.328125 68.867188 33.601562 103.667969l-88-63.972656zm0 0" fill="#ffc107" data-original="#000000" class=""/></g></svg>
